<svg width="19" height="19" viewBox="0 0 19 19" fill="none" xmlns="http://www.w3.org/2000/svg">
<path fill-rule="evenodd" clip-rule="evenodd" d="M9.50001 19C7.62108 19 5.78435 18.4428 4.22209 17.399C2.65982 16.3551 1.44219 14.8714 0.723158 13.1355C0.00412601 11.3996 -0.184019 9.48946 0.182541 7.64664C0.5491 5.80382 1.4539 4.11109 2.7825 2.78249C4.11109 1.45389 5.80383 0.549105 7.64664 0.182546C9.48946 -0.184014 11.3996 0.00411174 13.1355 0.723144C14.8714 1.44218 16.3551 2.65982 17.399 4.22208C18.4428 5.78435 19 7.62108 19 9.5C19 12.0196 17.9991 14.4359 16.2175 16.2175C14.4359 17.9991 12.0196 19 9.50001 19ZM4.1211 11.6423C3.91681 11.4357 3.80223 11.1569 3.80223 10.8664C3.80223 10.5759 3.91681 10.2971 4.1211 10.0906L4.68035 9.53452C4.77545 9.43855 4.88886 9.36267 5.01385 9.31138C5.13885 9.26009 5.27288 9.23444 5.40798 9.23595C5.54308 9.23745 5.6765 9.26608 5.80032 9.32015C5.92414 9.37421 6.03583 9.45261 6.12877 9.55067L7.11677 10.5757C7.16388 10.6254 7.22062 10.665 7.28353 10.6921C7.34644 10.7191 7.41421 10.7331 7.48269 10.7331C7.55117 10.7331 7.61893 10.7191 7.68184 10.6921C7.74475 10.665 7.80147 10.6254 7.84858 10.5757L12.8836 5.38555C12.9772 5.28679 13.0898 5.20799 13.2147 5.15388C13.3395 5.09976 13.474 5.07146 13.6101 5.07066C13.7462 5.06986 13.881 5.09658 14.0065 5.14923C14.1319 5.20187 14.2455 5.27936 14.3402 5.37701L14.8833 5.9261C15.0826 6.13179 15.1941 6.40697 15.1941 6.69338C15.1941 6.9798 15.0826 7.25497 14.8833 7.46067L8.19882 14.2535C8.10554 14.35 7.99392 14.427 7.8705 14.4799C7.74708 14.5327 7.61434 14.5604 7.48008 14.5613C7.34582 14.5622 7.21274 14.5362 7.08863 14.485C6.96453 14.4338 6.8519 14.3583 6.75735 14.263L4.1211 11.6423Z" fill="#D8D8D8"/>
</svg>
