<svg width="25" height="24" viewBox="0 0 25 24" fill="none" xmlns="http://www.w3.org/2000/svg">
<path d="M3.92857 9.23568C3.92857 4.47854 7.76429 0.642822 12.5 0.642822C17.2357 0.642822 21.0714 4.47854 21.0714 9.21425C21.0714 9.21425 21.0714 9.21425 21.0714 9.23568C22.9786 9.34282 24.5 10.9285 24.5 12.8571V13.2857C24.5 15.3 22.8714 16.9285 20.8571 16.9285H20.6643L19.1429 19.35C18.0714 21.0642 16.25 22.0714 14.2357 22.0714H13.9357C13.7429 22.8 13.0786 23.3571 12.2857 23.3571C11.3429 23.3571 10.5714 22.5857 10.5714 21.6428C10.5714 20.7 11.3429 19.9285 12.2857 19.9285C13.0786 19.9285 13.7429 20.4857 13.9357 21.2142H14.2357C15.95 21.2142 17.5143 20.3357 18.4143 18.8785L19.6571 16.9285H19.3571C18.8857 16.9285 18.5 16.5428 18.5 16.0714V10.0714C18.5 9.59996 18.8857 9.21425 19.3571 9.21425H20.2143C20.2143 4.94996 16.7643 1.49997 12.5 1.49997C8.23571 1.49997 4.78571 4.94996 4.78571 9.21425H5.64286C6.11429 9.21425 6.5 9.59996 6.5 10.0714V16.0714C6.5 16.5428 6.11429 16.9285 5.64286 16.9285H4.14286C2.12857 16.9285 0.5 15.3 0.5 13.2857V12.8571C0.5 10.9285 2.02143 9.34282 3.92857 9.23568ZM12.2857 20.7857C11.8143 20.7857 11.4286 21.1714 11.4286 21.6428C11.4286 22.1142 11.8143 22.5 12.2857 22.5C12.7571 22.5 13.1429 22.1142 13.1429 21.6428C13.1429 21.1714 12.7571 20.7857 12.2857 20.7857ZM19.3571 10.0714V16.0714H20.8571C22.4 16.0714 23.6429 14.8285 23.6429 13.2857V12.8571C23.6429 11.3142 22.4 10.0714 20.8571 10.0714H19.3571ZM1.35714 13.2857C1.35714 14.8285 2.6 16.0714 4.14286 16.0714H5.64286V10.0714H4.14286C2.6 10.0714 1.35714 11.3142 1.35714 12.8571V13.2857Z" fill="#8B8B93"/>
</svg>
