<svg width="24" height="24" viewBox="0 0 24 24" fill="none" xmlns="http://www.w3.org/2000/svg">
<path d="M12 5.84253C18.6705 5.84253 21.75 12 21.75 12C21.75 12 18.6705 18.1575 12 18.1575C5.3295 18.1575 2.25 12 2.25 12C2.25 12 5.3295 5.84253 12 5.84253Z" stroke="white" stroke-opacity="0.7" stroke-width="1.5" stroke-linejoin="round"/>
<path d="M14.9099 12C14.9188 12.3995 14.8479 12.7968 14.7011 13.1685C14.5544 13.5402 14.3349 13.8788 14.0555 14.1645C13.7762 14.4503 13.4425 14.6773 13.0742 14.8323C12.7058 14.9872 12.3103 15.0671 11.9106 15.0671C11.511 15.0671 11.1154 14.9872 10.7471 14.8323C10.3788 14.6773 10.0451 14.4503 9.76574 14.1645C9.48635 13.8788 9.26685 13.5402 9.12014 13.1685C8.97343 12.7968 8.90246 12.3995 8.91139 12C8.91139 11.2044 9.22746 10.4413 9.79007 9.87868C10.3527 9.31607 11.1157 9 11.9114 9C12.707 9 13.4701 9.31607 14.0327 9.87868C14.5953 10.4413 14.9114 11.2044 14.9114 12H14.9099Z" stroke="white" stroke-opacity="0.7" stroke-width="1.5" stroke-linejoin="round"/>
</svg>
